<svg width="140" height="140" viewBox="0 0 140 140" fill="none" xmlns="http://www.w3.org/2000/svg">
<path d="M81.935 13.0783L57.7383 13.02H57.7267C32.2117 13.02 12.2267 33.0108 12.2267 58.5317C12.2267 82.4367 30.8117 100.567 55.7725 101.523V123.853C55.7725 124.483 56.0292 125.522 56.4725 126.204C57.3008 127.517 58.7125 128.228 60.1592 128.228C60.9642 128.228 61.775 128.007 62.5042 127.54C64.0442 126.56 100.263 103.39 109.684 95.4217C120.779 86.03 127.418 72.2633 127.435 58.6017V58.5025C127.4 33.0283 107.427 13.0783 81.935 13.0725V13.0783ZM104.026 88.7483C97.4108 94.3483 75.6642 108.611 64.5225 115.833V97.2417C64.5225 94.8267 62.5683 92.8667 60.1475 92.8667H57.8375C36.4875 92.8667 20.9825 78.4233 20.9825 58.5317C20.9825 37.9167 37.1292 21.77 57.7325 21.77L81.9233 21.8283H81.935C102.538 21.8283 118.685 37.9633 118.697 58.555C118.679 69.6967 113.202 80.9783 104.032 88.7483H104.026Z" fill="#71767A"/>
</svg>
