<svg width="93" height="87" viewBox="0 0 93 87" fill="none" xmlns="http://www.w3.org/2000/svg">
<path d="M46.0625 86.6892H45.9983C34.1596 86.4692 0 55.605 0 26.3725C0 12.3292 11.5729 0 24.7637 0C35.2596 0 42.3179 7.24167 46.0579 12.5125C49.7887 7.25083 56.8471 0 67.3475 0C80.5475 0 92.1158 12.3292 92.1158 26.3771C92.1158 55.6004 57.9517 86.4646 46.1129 86.68H46.0625V86.6892ZM24.7683 6.87958C15.235 6.87958 6.87958 15.9912 6.87958 26.3817C6.87958 52.69 39.1187 79.53 46.0671 79.8142C53.0246 79.53 85.2546 52.6946 85.2546 26.3817C85.2546 15.9912 76.8992 6.87958 67.3658 6.87958C55.7792 6.87958 49.3075 20.3362 49.2525 20.4692C48.1983 23.045 43.9542 23.045 42.8954 20.4692C42.8312 20.3317 36.3642 6.87958 24.7729 6.87958H24.7683Z" fill="#71767A"/>
</svg>
